<?xml version="1.0" standalone="no"?>
<!DOCTYPE svg PUBLIC "-//W3C//DTD SVG 20010904//EN"
 "http://www.w3.org/TR/2001/REC-SVG-20010904/DTD/svg10.dtd">
<svg version="1.0" xmlns="http://www.w3.org/2000/svg"
 width="512.000000pt" height="512.000000pt" viewBox="0 0 512.000000 512.000000"
 preserveAspectRatio="xMidYMid meet">
<metadata>
Created by potrace 1.14, written by Peter Selinger 2001-2017
</metadata>
<g transform="translate(0.000000,512.000000) scale(0.100000,-0.100000)"
fill="#000000" stroke="none">
<path d="M0 2560 l0 -2560 2560 0 2560 0 0 2560 0 2560 -2560 0 -2560 0 0
-2560z m3382 974 c38 -11 58 -22 58 -32 0 -26 -495 -1561 -507 -1572 -4 -4
-36 1 -70 12 l-62 18 24 73 c13 39 60 187 105 327 45 140 106 329 135 420 63
195 222 691 236 738 6 17 13 32 17 32 3 0 32 -7 64 -16z m-1782 -482 l0 -69
-400 -179 c-220 -98 -400 -181 -400 -184 0 -3 69 -36 153 -73 83 -38 263 -119
400 -180 l247 -111 0 -68 c0 -37 -4 -68 -8 -68 -5 0 -76 31 -158 68 -82 38
-293 133 -469 212 -176 79 -326 148 -332 153 -8 6 -13 33 -13 71 l0 61 223
100 c122 54 339 152 482 217 143 65 263 118 268 118 4 0 7 -31 7 -68z m2335
-112 c209 -95 422 -190 473 -213 l92 -40 0 -67 0 -67 -102 -46 c-57 -25 -274
-122 -482 -216 -282 -127 -382 -168 -388 -159 -10 17 -10 99 0 115 7 11 74 43
337 162 22 10 133 60 248 111 114 52 207 96 207 99 0 4 -174 84 -387 180 -214
96 -392 178 -397 182 -9 8 -16 106 -8 127 2 7 10 11 16 8 6 -2 182 -82 391
-176z m-1482 81 c116 -40 203 -131 249 -259 15 -42 20 -85 21 -162 l2 -105
-373 -3 -373 -2 7 -38 c22 -122 74 -196 172 -244 63 -31 72 -33 177 -33 122 0
183 15 267 67 26 16 51 27 56 24 4 -2 19 -28 32 -56 l24 -52 -24 -20 c-74 -60
-234 -108 -360 -108 -255 1 -438 128 -495 345 -20 80 -20 255 1 326 67 224
255 358 484 344 41 -2 101 -13 133 -24z"/>
<path d="M2231 2909 c-69 -12 -130 -47 -171 -99 -37 -47 -70 -127 -70 -170 l0
-30 295 0 295 0 0 28 c0 70 -48 177 -100 220 -53 45 -156 66 -249 51z"/>
</g>
</svg>
